<svg xmlns="http://www.w3.org/2000/svg" viewBox="0 0 320 220" role="img" aria-labelledby="title desc">
<title id="title">Профиль бронирования</title><desc id="desc">Dark corporate line-art illustration for Fidelio Pro landing page: guest self-service profile.</desc>
<defs>
  <linearGradient id="g-solution-reservation-profile" x1="0" y1="0" x2="1" y2="1"><stop stop-color="#22d3ee"/><stop offset="0.52" stop-color="#38bdf8"/><stop offset="1" stop-color="#2563eb"/></linearGradient>
  <linearGradient id="panel-solution-reservation-profile" x1="0" y1="0" x2="1" y2="1"><stop stop-color="#15233a" stop-opacity="0.86"/><stop offset="1" stop-color="#0b1628" stop-opacity="0.55"/></linearGradient>
  <radialGradient id="glow-solution-reservation-profile" cx="50%" cy="35%" r="65%"><stop stop-color="#22d3ee" stop-opacity="0.32"/><stop offset="1" stop-color="#22d3ee" stop-opacity="0"/></radialGradient>
  <filter id="soft-solution-reservation-profile" x="-20%" y="-20%" width="140%" height="140%"><feGaussianBlur stdDeviation="2.2"/></filter>
</defs>
<rect width="320" height="220" rx="28" fill="#07111f" fill-opacity="0"/>
<circle cx="160" cy="108" r="104" fill="url(#glow-solution-reservation-profile)" filter="url(#soft-solution-reservation-profile)"/>
<path d="M34 176C76 142 113 164 151 134c43-34 77-13 135-66" fill="none" stroke="#38bdf8" stroke-opacity=".12" stroke-width="2"/>
<rect x="116" y="58" width="68" height="114" rx="16" fill="url(#panel-solution-reservation-profile)" stroke="#38bdf8" stroke-opacity=".45"/>
  <path d="M132 82h36M132 104h22M132 126h36" stroke="#22d3ee" stroke-width="4" stroke-linecap="round"/>
  <circle cx="150" cy="154" r="5" fill="#38bdf8"/>
  <rect x="106" y="54" width="108" height="126" rx="14" fill="url(#panel-solution-reservation-profile)" stroke="#38bdf8" stroke-opacity=".42"/>
  <path d="M132 86h56M132 110h40M132 134h56" stroke="#22d3ee" stroke-width="4" stroke-linecap="round"/>
  <path d="M190 54v30h24" fill="none" stroke="#38bdf8" stroke-opacity=".6" stroke-width="4"/>
<path d="M48 42h54M218 184h42" stroke="#eef7ff" stroke-opacity=".18" stroke-width="3" stroke-linecap="round"/>
</svg>
